<?xml version="1.0" encoding="utf-8"?>
<!-- Generator: Adobe Illustrator 22.0.0, SVG Export Plug-In . SVG Version: 6.00 Build 0)  -->
<svg version="1.1" id="Layer_1" xmlns="http://www.w3.org/2000/svg" xmlns:xlink="http://www.w3.org/1999/xlink" x="0px" y="0px"
	 viewBox="0 0 50 50" style="enable-background:new 0 0 50 50;" xml:space="preserve">
<style type="text/css">
	.st0{fill:#333333;}
</style>
<g id="XMLID_1996_">
	<g id="XMLID_1997_">
		<path id="XMLID_2003_" class="st0" d="M19.4,37.5c1.1-0.2,2.1-0.7,3-1.3c0.7-0.6,1.4-1.2,1.9-2.1c0.8-1.2,1.2-2.6,1.2-4.2
			c0-1.5-0.3-2.8-1-3.8c-0.7-1.1-1.7-1.8-3-2.3c0.9-0.5,1.5-0.9,2-1.5c0.8-1,1.2-2.3,1.2-3.9c0-1.6-0.4-2.9-1.2-4
			c-1.3-1.8-3.6-2.7-6.8-2.8H3.9v26.3h11.8C17,37.8,18.3,37.7,19.4,37.5z M9.1,16.1h5.7c1.3,0,2.3,0.1,3.1,0.4
			c0.9,0.4,1.4,1.2,1.4,2.4c0,1.1-0.4,1.9-1.1,2.3c-0.7,0.4-1.6,0.7-2.8,0.7H9.1V16.1z M9.1,33.3v-7h6.5c1.1,0,2,0.2,2.6,0.4
			c1.1,0.5,1.7,1.4,1.7,2.8c0,1.6-0.6,2.7-1.7,3.3c-0.6,0.3-1.5,0.5-2.7,0.5H9.1z"/>
		<g id="XMLID_1998_">
			<path id="XMLID_2000_" class="st0" d="M29.9,36.1c2,1.6,4.3,2.4,6.8,2.4c3.1,0,5.6-0.9,7.3-2.8c1.1-1.2,1.7-2.4,1.9-3.5h-5.2
				c-0.3,0.6-0.7,1-1,1.3c-0.7,0.6-1.7,0.9-2.8,0.9c-1.1,0-2-0.2-2.8-0.7c-1.3-0.8-2-2.1-2-4.1h14.1c0-1.7,0-3-0.2-3.9
				c-0.2-1.5-0.8-2.9-1.5-4c-0.9-1.3-2-2.3-3.4-2.9c-1.4-0.6-2.9-0.9-4.6-0.9c-2.8,0-5.2,0.9-6.9,2.7c-1.8,1.8-2.7,4.4-2.7,7.7
				C26.9,31.9,27.9,34.5,29.9,36.1z M33.5,23.2c0.7-0.7,1.7-1.1,3-1.1c1.2,0,2.2,0.3,3,1c0.8,0.7,1.3,1.7,1.4,3.1h-8.7
				C32.3,24.9,32.8,23.9,33.5,23.2z"/>
			<rect id="XMLID_1999_" x="30.5" y="13.1" class="st0" width="11.4" height="2.7"/>
		</g>
	</g>
</g>
</svg>
