<?xml version="1.0" encoding="utf-8"?>
<!-- Generator: Adobe Illustrator 22.0.0, SVG Export Plug-In . SVG Version: 6.00 Build 0)  -->
<svg version="1.1" id="Layer_1" xmlns="http://www.w3.org/2000/svg" xmlns:xlink="http://www.w3.org/1999/xlink" x="0px" y="0px"
	 viewBox="0 0 50 50" style="enable-background:new 0 0 50 50;" xml:space="preserve">
<style type="text/css">
	.st0{fill:#333333;}
</style>
<g id="XMLID_2094_">
	<g id="XMLID_2095_">
		<g id="XMLID_2097_">
			<rect id="XMLID_2100_" x="10.3" y="19.4" class="st0" width="6.6" height="21.4"/>
			<path id="XMLID_2098_" class="st0" d="M13.6,16.6c2.2,0,3.9-1.8,3.9-4s-1.8-4-3.9-4c-2.2,0-3.9,1.8-3.9,4S11.4,16.6,13.6,16.6z"
				/>
		</g>
		<path id="XMLID_2096_" class="st0" d="M27.5,29.6c0-3,1.4-4.8,4-4.8c2.4,0,3.6,1.7,3.6,4.8c0,3.1,0,11.2,0,11.2h6.6
			c0,0,0-7.8,0-13.6c0-5.7-3.3-8.5-7.8-8.5c-4.5,0-6.5,3.5-6.5,3.5v-2.9h-6.4v21.4h6.4C27.5,40.8,27.5,32.9,27.5,29.6z"/>
	</g>
</g>
</svg>
